<svg width="16" height="16" viewBox="0 0 16 16" fill="none" xmlns="http://www.w3.org/2000/svg">
<path d="M5.51969 1.6671C5.93969 1.67987 6.34635 1.7532 6.74035 1.8872H6.77969C6.80635 1.89987 6.82635 1.91387 6.83969 1.92654C6.98702 1.97387 7.12635 2.0272 7.25969 2.10054L7.51302 2.21387C7.61302 2.2672 7.73302 2.36654 7.79969 2.4072C7.86635 2.44653 7.93969 2.4872 7.99969 2.5332C8.74035 1.9672 9.63969 1.66054 10.5664 1.6671C10.987 1.6671 11.407 1.72654 11.8064 1.86054C14.267 2.66054 15.1537 5.36054 14.413 7.72053C13.993 8.92653 13.3064 10.0272 12.407 10.9265C11.1197 12.1732 9.70702 13.2799 8.18635 14.2332L8.01969 14.3339L7.84635 14.2265C6.32035 13.2799 4.89969 12.1732 3.60035 10.9199C2.70702 10.0205 2.01969 8.92653 1.59302 7.72053C0.839685 5.36054 1.72635 2.66053 4.21369 1.84654C4.40702 1.77987 4.60635 1.7332 4.80635 1.7072H4.88635C5.07369 1.67987 5.25969 1.6671 5.44635 1.6671H5.51969ZM11.4597 3.77387C11.1864 3.67987 10.8864 3.8272 10.7864 4.1072C10.693 4.3872 10.8397 4.69387 11.1197 4.7932C11.547 4.9532 11.833 5.37387 11.833 5.83987V5.86053C11.8204 6.0132 11.8664 6.16053 11.9597 6.27387C12.053 6.3872 12.193 6.4532 12.3397 6.4672C12.613 6.45987 12.8464 6.24053 12.8664 5.95987V5.88053C12.8864 4.94653 12.3204 4.10053 11.4597 3.77387Z" fill="#CED55B"/>
</svg>
